<mxfile host="Electron" modified="2023-05-27T09:09:30.624Z" agent="Mozilla/5.0 (Windows NT 10.0; Win64; x64) AppleWebKit/537.36 (KHTML, like Gecko) draw.io/21.2.8 Chrome/112.0.5615.165 Electron/24.2.0 Safari/537.36" etag="gVYOJ8MxA3rRFQOHdwIB" version="21.2.8" type="device" pages="2">
  <diagram name="reset-fast-forward-merge" id="wllqX5DD0ufSnY3iqEvO">
    <mxGraphModel dx="1436" dy="1253" grid="0" gridSize="10" guides="1" tooltips="1" connect="1" arrows="1" fold="1" page="0" pageScale="1" pageWidth="827" pageHeight="1169" math="0" shadow="0">
      <root>
        <mxCell id="0" />
        <mxCell id="1" parent="0" />
        <mxCell id="pngxt1NjddH71hs81utU-35" value="" style="swimlane;whiteSpace=wrap;html=1;startSize=50;" vertex="1" parent="1">
          <mxGeometry x="40" y="-80" width="460" height="220" as="geometry" />
        </mxCell>
        <mxCell id="pngxt1NjddH71hs81utU-1" value="&lt;font style=&quot;font-size: 20px;&quot;&gt;v1&lt;/font&gt;" style="whiteSpace=wrap;html=1;aspect=fixed;fillColor=#f5f5f5;fontColor=#333333;strokeColor=#666666;" vertex="1" parent="pngxt1NjddH71hs81utU-35">
          <mxGeometry x="40" y="80" width="40" height="40" as="geometry" />
        </mxCell>
        <mxCell id="pngxt1NjddH71hs81utU-10" style="edgeStyle=orthogonalEdgeStyle;rounded=0;orthogonalLoop=1;jettySize=auto;html=1;exitX=0;exitY=0.5;exitDx=0;exitDy=0;entryX=1;entryY=0.5;entryDx=0;entryDy=0;" edge="1" parent="pngxt1NjddH71hs81utU-35" source="pngxt1NjddH71hs81utU-2" target="pngxt1NjddH71hs81utU-1">
          <mxGeometry relative="1" as="geometry" />
        </mxCell>
        <mxCell id="pngxt1NjddH71hs81utU-2" value="&lt;font style=&quot;font-size: 20px;&quot;&gt;v2&lt;/font&gt;" style="whiteSpace=wrap;html=1;aspect=fixed;fillColor=#f5f5f5;fontColor=#333333;strokeColor=#666666;" vertex="1" parent="pngxt1NjddH71hs81utU-35">
          <mxGeometry x="120" y="80" width="40" height="40" as="geometry" />
        </mxCell>
        <mxCell id="pngxt1NjddH71hs81utU-11" style="edgeStyle=orthogonalEdgeStyle;rounded=0;orthogonalLoop=1;jettySize=auto;html=1;exitX=0;exitY=0.5;exitDx=0;exitDy=0;entryX=1;entryY=0.5;entryDx=0;entryDy=0;" edge="1" parent="pngxt1NjddH71hs81utU-35" source="pngxt1NjddH71hs81utU-3" target="pngxt1NjddH71hs81utU-2">
          <mxGeometry relative="1" as="geometry" />
        </mxCell>
        <mxCell id="pngxt1NjddH71hs81utU-3" value="&lt;font style=&quot;font-size: 20px;&quot;&gt;v3&lt;/font&gt;" style="whiteSpace=wrap;html=1;aspect=fixed;fillColor=#f5f5f5;fontColor=#333333;strokeColor=#666666;" vertex="1" parent="pngxt1NjddH71hs81utU-35">
          <mxGeometry x="200" y="80" width="40" height="40" as="geometry" />
        </mxCell>
        <mxCell id="pngxt1NjddH71hs81utU-12" style="edgeStyle=orthogonalEdgeStyle;rounded=0;orthogonalLoop=1;jettySize=auto;html=1;exitX=0;exitY=0.5;exitDx=0;exitDy=0;entryX=1;entryY=0.5;entryDx=0;entryDy=0;" edge="1" parent="pngxt1NjddH71hs81utU-35" source="pngxt1NjddH71hs81utU-4" target="pngxt1NjddH71hs81utU-3">
          <mxGeometry relative="1" as="geometry" />
        </mxCell>
        <mxCell id="pngxt1NjddH71hs81utU-4" value="&lt;font style=&quot;font-size: 20px;&quot;&gt;v4&lt;/font&gt;" style="whiteSpace=wrap;html=1;aspect=fixed;fillColor=#f5f5f5;fontColor=#333333;strokeColor=#666666;" vertex="1" parent="pngxt1NjddH71hs81utU-35">
          <mxGeometry x="280" y="80" width="40" height="40" as="geometry" />
        </mxCell>
        <mxCell id="pngxt1NjddH71hs81utU-13" style="edgeStyle=orthogonalEdgeStyle;rounded=0;orthogonalLoop=1;jettySize=auto;html=1;exitX=0;exitY=0.5;exitDx=0;exitDy=0;entryX=1;entryY=0.5;entryDx=0;entryDy=0;" edge="1" parent="pngxt1NjddH71hs81utU-35" source="pngxt1NjddH71hs81utU-5" target="pngxt1NjddH71hs81utU-4">
          <mxGeometry relative="1" as="geometry" />
        </mxCell>
        <mxCell id="pngxt1NjddH71hs81utU-5" value="&lt;font style=&quot;font-size: 20px;&quot;&gt;v5&lt;/font&gt;" style="whiteSpace=wrap;html=1;aspect=fixed;fillColor=#f5f5f5;fontColor=#333333;strokeColor=#666666;" vertex="1" parent="pngxt1NjddH71hs81utU-35">
          <mxGeometry x="360" y="80" width="40" height="40" as="geometry" />
        </mxCell>
        <mxCell id="pngxt1NjddH71hs81utU-18" style="edgeStyle=orthogonalEdgeStyle;rounded=0;orthogonalLoop=1;jettySize=auto;html=1;exitX=0.5;exitY=0;exitDx=0;exitDy=0;entryX=0.5;entryY=1;entryDx=0;entryDy=0;" edge="1" parent="pngxt1NjddH71hs81utU-35" source="pngxt1NjddH71hs81utU-15" target="pngxt1NjddH71hs81utU-3">
          <mxGeometry relative="1" as="geometry" />
        </mxCell>
        <mxCell id="pngxt1NjddH71hs81utU-15" value="&lt;font style=&quot;font-size: 15px;&quot;&gt;main&lt;/font&gt;" style="rounded=1;whiteSpace=wrap;html=1;fillColor=#ffe6cc;strokeColor=#d79b00;" vertex="1" parent="pngxt1NjddH71hs81utU-35">
          <mxGeometry x="170" y="160" width="100" height="40" as="geometry" />
        </mxCell>
        <mxCell id="pngxt1NjddH71hs81utU-19" style="edgeStyle=orthogonalEdgeStyle;rounded=0;orthogonalLoop=1;jettySize=auto;html=1;exitX=0.5;exitY=0;exitDx=0;exitDy=0;entryX=0.5;entryY=1;entryDx=0;entryDy=0;" edge="1" parent="pngxt1NjddH71hs81utU-35" source="pngxt1NjddH71hs81utU-17" target="pngxt1NjddH71hs81utU-5">
          <mxGeometry relative="1" as="geometry" />
        </mxCell>
        <mxCell id="pngxt1NjddH71hs81utU-17" value="&lt;font style=&quot;font-size: 15px;&quot;&gt;dev&lt;/font&gt;" style="rounded=1;whiteSpace=wrap;html=1;fillColor=#fff2cc;strokeColor=#d6b656;" vertex="1" parent="pngxt1NjddH71hs81utU-35">
          <mxGeometry x="330" y="160" width="100" height="40" as="geometry" />
        </mxCell>
        <mxCell id="pngxt1NjddH71hs81utU-76" value="&lt;b style=&quot;border-color: var(--border-color); color: rgb(103, 171, 159); font-size: 22px;&quot;&gt;git merge dev&lt;/b&gt;" style="swimlane;whiteSpace=wrap;html=1;startSize=50;" vertex="1" parent="1">
          <mxGeometry x="40" y="170" width="510" height="220" as="geometry" />
        </mxCell>
        <mxCell id="pngxt1NjddH71hs81utU-77" value="&lt;font style=&quot;font-size: 20px;&quot;&gt;v1&lt;/font&gt;" style="whiteSpace=wrap;html=1;aspect=fixed;fillColor=#f5f5f5;fontColor=#333333;strokeColor=#666666;" vertex="1" parent="pngxt1NjddH71hs81utU-76">
          <mxGeometry x="40" y="80" width="40" height="40" as="geometry" />
        </mxCell>
        <mxCell id="pngxt1NjddH71hs81utU-78" style="edgeStyle=orthogonalEdgeStyle;rounded=0;orthogonalLoop=1;jettySize=auto;html=1;exitX=0;exitY=0.5;exitDx=0;exitDy=0;entryX=1;entryY=0.5;entryDx=0;entryDy=0;" edge="1" parent="pngxt1NjddH71hs81utU-76" source="pngxt1NjddH71hs81utU-79" target="pngxt1NjddH71hs81utU-77">
          <mxGeometry relative="1" as="geometry" />
        </mxCell>
        <mxCell id="pngxt1NjddH71hs81utU-79" value="&lt;font style=&quot;font-size: 20px;&quot;&gt;v2&lt;/font&gt;" style="whiteSpace=wrap;html=1;aspect=fixed;fillColor=#f5f5f5;fontColor=#333333;strokeColor=#666666;" vertex="1" parent="pngxt1NjddH71hs81utU-76">
          <mxGeometry x="120" y="80" width="40" height="40" as="geometry" />
        </mxCell>
        <mxCell id="pngxt1NjddH71hs81utU-80" style="edgeStyle=orthogonalEdgeStyle;rounded=0;orthogonalLoop=1;jettySize=auto;html=1;exitX=0;exitY=0.5;exitDx=0;exitDy=0;entryX=1;entryY=0.5;entryDx=0;entryDy=0;" edge="1" parent="pngxt1NjddH71hs81utU-76" source="pngxt1NjddH71hs81utU-81" target="pngxt1NjddH71hs81utU-79">
          <mxGeometry relative="1" as="geometry" />
        </mxCell>
        <mxCell id="pngxt1NjddH71hs81utU-81" value="&lt;font style=&quot;font-size: 20px;&quot;&gt;v3&lt;/font&gt;" style="whiteSpace=wrap;html=1;aspect=fixed;fillColor=#f5f5f5;fontColor=#333333;strokeColor=#666666;" vertex="1" parent="pngxt1NjddH71hs81utU-76">
          <mxGeometry x="200" y="80" width="40" height="40" as="geometry" />
        </mxCell>
        <mxCell id="pngxt1NjddH71hs81utU-82" style="edgeStyle=orthogonalEdgeStyle;rounded=0;orthogonalLoop=1;jettySize=auto;html=1;exitX=0;exitY=0.5;exitDx=0;exitDy=0;entryX=1;entryY=0.5;entryDx=0;entryDy=0;" edge="1" parent="pngxt1NjddH71hs81utU-76" source="pngxt1NjddH71hs81utU-83" target="pngxt1NjddH71hs81utU-81">
          <mxGeometry relative="1" as="geometry" />
        </mxCell>
        <mxCell id="pngxt1NjddH71hs81utU-83" value="&lt;font style=&quot;font-size: 20px;&quot;&gt;v4&lt;/font&gt;" style="whiteSpace=wrap;html=1;aspect=fixed;fillColor=#f5f5f5;fontColor=#333333;strokeColor=#666666;" vertex="1" parent="pngxt1NjddH71hs81utU-76">
          <mxGeometry x="280" y="80" width="40" height="40" as="geometry" />
        </mxCell>
        <mxCell id="pngxt1NjddH71hs81utU-84" style="edgeStyle=orthogonalEdgeStyle;rounded=0;orthogonalLoop=1;jettySize=auto;html=1;exitX=0;exitY=0.5;exitDx=0;exitDy=0;entryX=1;entryY=0.5;entryDx=0;entryDy=0;" edge="1" parent="pngxt1NjddH71hs81utU-76" source="pngxt1NjddH71hs81utU-85" target="pngxt1NjddH71hs81utU-83">
          <mxGeometry relative="1" as="geometry" />
        </mxCell>
        <mxCell id="pngxt1NjddH71hs81utU-85" value="&lt;font style=&quot;font-size: 20px;&quot;&gt;v5&lt;/font&gt;" style="whiteSpace=wrap;html=1;aspect=fixed;fillColor=#f5f5f5;fontColor=#333333;strokeColor=#666666;" vertex="1" parent="pngxt1NjddH71hs81utU-76">
          <mxGeometry x="360" y="80" width="40" height="40" as="geometry" />
        </mxCell>
        <mxCell id="pngxt1NjddH71hs81utU-86" style="edgeStyle=orthogonalEdgeStyle;rounded=0;orthogonalLoop=1;jettySize=auto;html=1;exitX=0.5;exitY=0;exitDx=0;exitDy=0;entryX=0.5;entryY=1;entryDx=0;entryDy=0;" edge="1" parent="pngxt1NjddH71hs81utU-76" source="pngxt1NjddH71hs81utU-87" target="pngxt1NjddH71hs81utU-85">
          <mxGeometry relative="1" as="geometry" />
        </mxCell>
        <mxCell id="pngxt1NjddH71hs81utU-87" value="&lt;font style=&quot;font-size: 15px;&quot;&gt;main&lt;/font&gt;" style="rounded=1;whiteSpace=wrap;html=1;fillColor=#ffe6cc;strokeColor=#d79b00;" vertex="1" parent="pngxt1NjddH71hs81utU-76">
          <mxGeometry x="280" y="160" width="100" height="40" as="geometry" />
        </mxCell>
        <mxCell id="pngxt1NjddH71hs81utU-88" style="edgeStyle=orthogonalEdgeStyle;rounded=0;orthogonalLoop=1;jettySize=auto;html=1;exitX=0.5;exitY=0;exitDx=0;exitDy=0;entryX=0.5;entryY=1;entryDx=0;entryDy=0;" edge="1" parent="pngxt1NjddH71hs81utU-76" source="pngxt1NjddH71hs81utU-89" target="pngxt1NjddH71hs81utU-85">
          <mxGeometry relative="1" as="geometry" />
        </mxCell>
        <mxCell id="pngxt1NjddH71hs81utU-89" value="&lt;font style=&quot;font-size: 15px;&quot;&gt;dev&lt;/font&gt;" style="rounded=1;whiteSpace=wrap;html=1;fillColor=#fff2cc;strokeColor=#d6b656;" vertex="1" parent="pngxt1NjddH71hs81utU-76">
          <mxGeometry x="390" y="160" width="100" height="40" as="geometry" />
        </mxCell>
        <mxCell id="pngxt1NjddH71hs81utU-90" value="&lt;b style=&quot;border-color: var(--border-color); color: rgb(103, 171, 159); font-size: 22px;&quot;&gt;git reset --hard v2&lt;/b&gt;" style="swimlane;whiteSpace=wrap;html=1;startSize=50;" vertex="1" parent="1">
          <mxGeometry x="40" y="430" width="460" height="220" as="geometry" />
        </mxCell>
        <mxCell id="pngxt1NjddH71hs81utU-91" value="&lt;font style=&quot;font-size: 20px;&quot;&gt;v1&lt;/font&gt;" style="whiteSpace=wrap;html=1;aspect=fixed;fillColor=#f5f5f5;fontColor=#333333;strokeColor=#666666;" vertex="1" parent="pngxt1NjddH71hs81utU-90">
          <mxGeometry x="40" y="80" width="40" height="40" as="geometry" />
        </mxCell>
        <mxCell id="pngxt1NjddH71hs81utU-92" style="edgeStyle=orthogonalEdgeStyle;rounded=0;orthogonalLoop=1;jettySize=auto;html=1;exitX=0;exitY=0.5;exitDx=0;exitDy=0;entryX=1;entryY=0.5;entryDx=0;entryDy=0;" edge="1" parent="pngxt1NjddH71hs81utU-90" source="pngxt1NjddH71hs81utU-93" target="pngxt1NjddH71hs81utU-91">
          <mxGeometry relative="1" as="geometry" />
        </mxCell>
        <mxCell id="pngxt1NjddH71hs81utU-93" value="&lt;font style=&quot;font-size: 20px;&quot;&gt;v2&lt;/font&gt;" style="whiteSpace=wrap;html=1;aspect=fixed;fillColor=#f5f5f5;fontColor=#333333;strokeColor=#666666;" vertex="1" parent="pngxt1NjddH71hs81utU-90">
          <mxGeometry x="120" y="80" width="40" height="40" as="geometry" />
        </mxCell>
        <mxCell id="pngxt1NjddH71hs81utU-94" style="edgeStyle=orthogonalEdgeStyle;rounded=0;orthogonalLoop=1;jettySize=auto;html=1;exitX=0;exitY=0.5;exitDx=0;exitDy=0;entryX=1;entryY=0.5;entryDx=0;entryDy=0;" edge="1" parent="pngxt1NjddH71hs81utU-90" source="pngxt1NjddH71hs81utU-95" target="pngxt1NjddH71hs81utU-93">
          <mxGeometry relative="1" as="geometry" />
        </mxCell>
        <mxCell id="pngxt1NjddH71hs81utU-95" value="&lt;font style=&quot;font-size: 20px;&quot;&gt;v3&lt;/font&gt;" style="whiteSpace=wrap;html=1;aspect=fixed;fillColor=#f5f5f5;fontColor=#333333;strokeColor=#666666;" vertex="1" parent="pngxt1NjddH71hs81utU-90">
          <mxGeometry x="200" y="80" width="40" height="40" as="geometry" />
        </mxCell>
        <mxCell id="pngxt1NjddH71hs81utU-96" style="edgeStyle=orthogonalEdgeStyle;rounded=0;orthogonalLoop=1;jettySize=auto;html=1;exitX=0;exitY=0.5;exitDx=0;exitDy=0;entryX=1;entryY=0.5;entryDx=0;entryDy=0;" edge="1" parent="pngxt1NjddH71hs81utU-90" source="pngxt1NjddH71hs81utU-97" target="pngxt1NjddH71hs81utU-95">
          <mxGeometry relative="1" as="geometry" />
        </mxCell>
        <mxCell id="pngxt1NjddH71hs81utU-97" value="&lt;font style=&quot;font-size: 20px;&quot;&gt;v4&lt;/font&gt;" style="whiteSpace=wrap;html=1;aspect=fixed;fillColor=#f5f5f5;fontColor=#333333;strokeColor=#666666;" vertex="1" parent="pngxt1NjddH71hs81utU-90">
          <mxGeometry x="280" y="80" width="40" height="40" as="geometry" />
        </mxCell>
        <mxCell id="pngxt1NjddH71hs81utU-98" style="edgeStyle=orthogonalEdgeStyle;rounded=0;orthogonalLoop=1;jettySize=auto;html=1;exitX=0;exitY=0.5;exitDx=0;exitDy=0;entryX=1;entryY=0.5;entryDx=0;entryDy=0;" edge="1" parent="pngxt1NjddH71hs81utU-90" source="pngxt1NjddH71hs81utU-99" target="pngxt1NjddH71hs81utU-97">
          <mxGeometry relative="1" as="geometry" />
        </mxCell>
        <mxCell id="pngxt1NjddH71hs81utU-99" value="&lt;font style=&quot;font-size: 20px;&quot;&gt;v5&lt;/font&gt;" style="whiteSpace=wrap;html=1;aspect=fixed;fillColor=#f5f5f5;fontColor=#333333;strokeColor=#666666;" vertex="1" parent="pngxt1NjddH71hs81utU-90">
          <mxGeometry x="360" y="80" width="40" height="40" as="geometry" />
        </mxCell>
        <mxCell id="pngxt1NjddH71hs81utU-100" style="edgeStyle=orthogonalEdgeStyle;rounded=0;orthogonalLoop=1;jettySize=auto;html=1;exitX=0.5;exitY=0;exitDx=0;exitDy=0;entryX=0.5;entryY=1;entryDx=0;entryDy=0;" edge="1" parent="pngxt1NjddH71hs81utU-90" source="pngxt1NjddH71hs81utU-101" target="pngxt1NjddH71hs81utU-95">
          <mxGeometry relative="1" as="geometry" />
        </mxCell>
        <mxCell id="pngxt1NjddH71hs81utU-101" value="&lt;font style=&quot;font-size: 15px;&quot;&gt;main&lt;/font&gt;" style="rounded=1;whiteSpace=wrap;html=1;fillColor=#ffe6cc;strokeColor=#d79b00;" vertex="1" parent="pngxt1NjddH71hs81utU-90">
          <mxGeometry x="170" y="160" width="100" height="40" as="geometry" />
        </mxCell>
        <mxCell id="pngxt1NjddH71hs81utU-102" style="edgeStyle=orthogonalEdgeStyle;rounded=0;orthogonalLoop=1;jettySize=auto;html=1;exitX=0.5;exitY=0;exitDx=0;exitDy=0;entryX=0.5;entryY=1;entryDx=0;entryDy=0;" edge="1" parent="pngxt1NjddH71hs81utU-90" source="pngxt1NjddH71hs81utU-103" target="pngxt1NjddH71hs81utU-99">
          <mxGeometry relative="1" as="geometry" />
        </mxCell>
        <mxCell id="pngxt1NjddH71hs81utU-103" value="&lt;font style=&quot;font-size: 15px;&quot;&gt;dev&lt;/font&gt;" style="rounded=1;whiteSpace=wrap;html=1;fillColor=#fff2cc;strokeColor=#d6b656;" vertex="1" parent="pngxt1NjddH71hs81utU-90">
          <mxGeometry x="330" y="160" width="100" height="40" as="geometry" />
        </mxCell>
      </root>
    </mxGraphModel>
  </diagram>
  <diagram name="reset-three-way-merge" id="RdPVzB3VbECTAj380SoN">
    <mxGraphModel dx="1621" dy="1125" grid="0" gridSize="10" guides="1" tooltips="1" connect="1" arrows="1" fold="1" page="0" pageScale="1" pageWidth="827" pageHeight="1169" math="0" shadow="0">
      <root>
        <mxCell id="2_KRdMFhKBJ03eav-5_9-0" />
        <mxCell id="2_KRdMFhKBJ03eav-5_9-1" parent="2_KRdMFhKBJ03eav-5_9-0" />
        <mxCell id="2_KRdMFhKBJ03eav-5_9-2" value="" style="swimlane;whiteSpace=wrap;html=1;startSize=50;" vertex="1" parent="2_KRdMFhKBJ03eav-5_9-1">
          <mxGeometry x="-80" y="-80" width="270" height="340" as="geometry" />
        </mxCell>
        <mxCell id="2_KRdMFhKBJ03eav-5_9-3" value="&lt;font style=&quot;font-size: 15px;&quot;&gt;v1&lt;/font&gt;" style="whiteSpace=wrap;html=1;aspect=fixed;fillColor=#f5f5f5;fontColor=#333333;strokeColor=#666666;" vertex="1" parent="2_KRdMFhKBJ03eav-5_9-2">
          <mxGeometry x="20" y="200" width="40" height="40" as="geometry" />
        </mxCell>
        <mxCell id="2_KRdMFhKBJ03eav-5_9-4" style="edgeStyle=orthogonalEdgeStyle;rounded=0;orthogonalLoop=1;jettySize=auto;html=1;exitX=0;exitY=0.5;exitDx=0;exitDy=0;entryX=1;entryY=0.5;entryDx=0;entryDy=0;" edge="1" parent="2_KRdMFhKBJ03eav-5_9-2" source="2_KRdMFhKBJ03eav-5_9-5" target="2_KRdMFhKBJ03eav-5_9-3">
          <mxGeometry relative="1" as="geometry" />
        </mxCell>
        <mxCell id="2_KRdMFhKBJ03eav-5_9-5" value="&lt;font style=&quot;font-size: 15px;&quot;&gt;v2&lt;/font&gt;" style="whiteSpace=wrap;html=1;aspect=fixed;fillColor=#f5f5f5;fontColor=#333333;strokeColor=#666666;" vertex="1" parent="2_KRdMFhKBJ03eav-5_9-2">
          <mxGeometry x="120" y="200" width="40" height="40" as="geometry" />
        </mxCell>
        <mxCell id="2_KRdMFhKBJ03eav-5_9-12" style="edgeStyle=orthogonalEdgeStyle;rounded=0;orthogonalLoop=1;jettySize=auto;html=1;exitX=0.5;exitY=0;exitDx=0;exitDy=0;entryX=0.5;entryY=1;entryDx=0;entryDy=0;" edge="1" parent="2_KRdMFhKBJ03eav-5_9-2" source="2_KRdMFhKBJ03eav-5_9-13">
          <mxGeometry relative="1" as="geometry">
            <mxPoint x="140" y="240" as="targetPoint" />
          </mxGeometry>
        </mxCell>
        <mxCell id="2_KRdMFhKBJ03eav-5_9-13" value="&lt;font style=&quot;font-size: 15px;&quot;&gt;main&lt;/font&gt;" style="rounded=1;whiteSpace=wrap;html=1;fillColor=#ffe6cc;strokeColor=#d79b00;" vertex="1" parent="2_KRdMFhKBJ03eav-5_9-2">
          <mxGeometry x="90" y="270" width="100" height="30" as="geometry" />
        </mxCell>
        <mxCell id="IV75y_4CTsu8xXDFk1eG-8" style="edgeStyle=orthogonalEdgeStyle;rounded=0;orthogonalLoop=1;jettySize=auto;html=1;exitX=0.5;exitY=1;exitDx=0;exitDy=0;entryX=0.5;entryY=0;entryDx=0;entryDy=0;" edge="1" parent="2_KRdMFhKBJ03eav-5_9-2" source="2_KRdMFhKBJ03eav-5_9-15" target="IV75y_4CTsu8xXDFk1eG-1">
          <mxGeometry relative="1" as="geometry" />
        </mxCell>
        <mxCell id="2_KRdMFhKBJ03eav-5_9-15" value="&lt;font style=&quot;font-size: 15px;&quot;&gt;dev&lt;/font&gt;" style="rounded=1;whiteSpace=wrap;html=1;fillColor=#fff2cc;strokeColor=#d6b656;" vertex="1" parent="2_KRdMFhKBJ03eav-5_9-2">
          <mxGeometry x="150" y="90" width="100" height="30" as="geometry" />
        </mxCell>
        <mxCell id="IV75y_4CTsu8xXDFk1eG-3" style="edgeStyle=orthogonalEdgeStyle;rounded=0;orthogonalLoop=1;jettySize=auto;html=1;exitX=0;exitY=0.5;exitDx=0;exitDy=0;entryX=0.5;entryY=0;entryDx=0;entryDy=0;" edge="1" parent="2_KRdMFhKBJ03eav-5_9-2" source="IV75y_4CTsu8xXDFk1eG-1" target="2_KRdMFhKBJ03eav-5_9-3">
          <mxGeometry relative="1" as="geometry" />
        </mxCell>
        <mxCell id="IV75y_4CTsu8xXDFk1eG-1" value="&lt;font style=&quot;font-size: 15px;&quot;&gt;v3&lt;/font&gt;" style="whiteSpace=wrap;html=1;aspect=fixed;fillColor=#f5f5f5;fontColor=#333333;strokeColor=#666666;" vertex="1" parent="2_KRdMFhKBJ03eav-5_9-2">
          <mxGeometry x="180" y="150" width="40" height="40" as="geometry" />
        </mxCell>
        <mxCell id="IV75y_4CTsu8xXDFk1eG-9" value="&lt;b style=&quot;border-color: var(--border-color); color: rgb(103, 171, 159); font-size: 22px;&quot;&gt;git merge dev&lt;/b&gt;" style="swimlane;whiteSpace=wrap;html=1;startSize=50;" vertex="1" parent="2_KRdMFhKBJ03eav-5_9-1">
          <mxGeometry x="210" y="-80" width="350" height="340" as="geometry" />
        </mxCell>
        <mxCell id="IV75y_4CTsu8xXDFk1eG-10" value="&lt;font style=&quot;font-size: 15px;&quot;&gt;v1&lt;/font&gt;" style="whiteSpace=wrap;html=1;aspect=fixed;fillColor=#f5f5f5;fontColor=#333333;strokeColor=#666666;" vertex="1" parent="IV75y_4CTsu8xXDFk1eG-9">
          <mxGeometry x="22.5" y="200" width="40" height="40" as="geometry" />
        </mxCell>
        <mxCell id="IV75y_4CTsu8xXDFk1eG-11" style="edgeStyle=orthogonalEdgeStyle;rounded=0;orthogonalLoop=1;jettySize=auto;html=1;exitX=0;exitY=0.5;exitDx=0;exitDy=0;entryX=1;entryY=0.5;entryDx=0;entryDy=0;" edge="1" parent="IV75y_4CTsu8xXDFk1eG-9" source="IV75y_4CTsu8xXDFk1eG-12" target="IV75y_4CTsu8xXDFk1eG-10">
          <mxGeometry relative="1" as="geometry" />
        </mxCell>
        <mxCell id="IV75y_4CTsu8xXDFk1eG-12" value="&lt;font style=&quot;font-size: 15px;&quot;&gt;v2&lt;/font&gt;" style="whiteSpace=wrap;html=1;aspect=fixed;fillColor=#f5f5f5;fontColor=#333333;strokeColor=#666666;" vertex="1" parent="IV75y_4CTsu8xXDFk1eG-9">
          <mxGeometry x="122.5" y="200" width="40" height="40" as="geometry" />
        </mxCell>
        <mxCell id="IV75y_4CTsu8xXDFk1eG-13" style="edgeStyle=orthogonalEdgeStyle;rounded=0;orthogonalLoop=1;jettySize=auto;html=1;exitX=0.5;exitY=0;exitDx=0;exitDy=0;entryX=0.5;entryY=1;entryDx=0;entryDy=0;" edge="1" parent="IV75y_4CTsu8xXDFk1eG-9" source="IV75y_4CTsu8xXDFk1eG-14">
          <mxGeometry relative="1" as="geometry">
            <mxPoint x="282.5" y="240" as="targetPoint" />
          </mxGeometry>
        </mxCell>
        <mxCell id="IV75y_4CTsu8xXDFk1eG-14" value="&lt;font style=&quot;font-size: 15px;&quot;&gt;main&lt;/font&gt;" style="rounded=1;whiteSpace=wrap;html=1;fillColor=#ffe6cc;strokeColor=#d79b00;" vertex="1" parent="IV75y_4CTsu8xXDFk1eG-9">
          <mxGeometry x="237.5" y="270" width="90" height="30" as="geometry" />
        </mxCell>
        <mxCell id="IV75y_4CTsu8xXDFk1eG-15" style="edgeStyle=orthogonalEdgeStyle;rounded=0;orthogonalLoop=1;jettySize=auto;html=1;exitX=0.5;exitY=1;exitDx=0;exitDy=0;entryX=0.5;entryY=0;entryDx=0;entryDy=0;" edge="1" parent="IV75y_4CTsu8xXDFk1eG-9" source="IV75y_4CTsu8xXDFk1eG-16" target="IV75y_4CTsu8xXDFk1eG-18">
          <mxGeometry relative="1" as="geometry" />
        </mxCell>
        <mxCell id="IV75y_4CTsu8xXDFk1eG-16" value="&lt;font style=&quot;font-size: 15px;&quot;&gt;dev&lt;/font&gt;" style="rounded=1;whiteSpace=wrap;html=1;fillColor=#fff2cc;strokeColor=#d6b656;" vertex="1" parent="IV75y_4CTsu8xXDFk1eG-9">
          <mxGeometry x="152.5" y="90" width="100" height="30" as="geometry" />
        </mxCell>
        <mxCell id="IV75y_4CTsu8xXDFk1eG-17" style="edgeStyle=orthogonalEdgeStyle;rounded=0;orthogonalLoop=1;jettySize=auto;html=1;exitX=0;exitY=0.5;exitDx=0;exitDy=0;entryX=0.5;entryY=0;entryDx=0;entryDy=0;" edge="1" parent="IV75y_4CTsu8xXDFk1eG-9" source="IV75y_4CTsu8xXDFk1eG-18" target="IV75y_4CTsu8xXDFk1eG-10">
          <mxGeometry relative="1" as="geometry" />
        </mxCell>
        <mxCell id="IV75y_4CTsu8xXDFk1eG-18" value="&lt;font style=&quot;font-size: 15px;&quot;&gt;v3&lt;/font&gt;" style="whiteSpace=wrap;html=1;aspect=fixed;fillColor=#f5f5f5;fontColor=#333333;strokeColor=#666666;" vertex="1" parent="IV75y_4CTsu8xXDFk1eG-9">
          <mxGeometry x="182.5" y="150" width="40" height="40" as="geometry" />
        </mxCell>
        <mxCell id="IV75y_4CTsu8xXDFk1eG-19" style="edgeStyle=orthogonalEdgeStyle;rounded=0;orthogonalLoop=1;jettySize=auto;html=1;exitX=0;exitY=0.5;exitDx=0;exitDy=0;entryX=1;entryY=0.5;entryDx=0;entryDy=0;" edge="1" parent="IV75y_4CTsu8xXDFk1eG-9" source="IV75y_4CTsu8xXDFk1eG-21" target="IV75y_4CTsu8xXDFk1eG-12">
          <mxGeometry relative="1" as="geometry" />
        </mxCell>
        <mxCell id="IV75y_4CTsu8xXDFk1eG-20" style="edgeStyle=orthogonalEdgeStyle;rounded=0;orthogonalLoop=1;jettySize=auto;html=1;exitX=0.5;exitY=0;exitDx=0;exitDy=0;entryX=1;entryY=0.5;entryDx=0;entryDy=0;" edge="1" parent="IV75y_4CTsu8xXDFk1eG-9" source="IV75y_4CTsu8xXDFk1eG-21" target="IV75y_4CTsu8xXDFk1eG-18">
          <mxGeometry relative="1" as="geometry" />
        </mxCell>
        <mxCell id="IV75y_4CTsu8xXDFk1eG-21" value="&lt;font style=&quot;font-size: 15px;&quot;&gt;v4&lt;/font&gt;" style="whiteSpace=wrap;html=1;aspect=fixed;fillColor=#f5f5f5;fontColor=#333333;strokeColor=#666666;" vertex="1" parent="IV75y_4CTsu8xXDFk1eG-9">
          <mxGeometry x="262.5" y="200" width="40" height="40" as="geometry" />
        </mxCell>
        <mxCell id="IV75y_4CTsu8xXDFk1eG-35" value="&lt;b style=&quot;border-color: var(--border-color); color: rgb(103, 171, 159); font-size: 22px;&quot;&gt;git reset --hard v2&lt;/b&gt;" style="swimlane;whiteSpace=wrap;html=1;startSize=50;" vertex="1" parent="2_KRdMFhKBJ03eav-5_9-1">
          <mxGeometry x="580" y="-80" width="270" height="340" as="geometry" />
        </mxCell>
        <mxCell id="IV75y_4CTsu8xXDFk1eG-36" value="&lt;font style=&quot;font-size: 15px;&quot;&gt;v1&lt;/font&gt;" style="whiteSpace=wrap;html=1;aspect=fixed;fillColor=#f5f5f5;fontColor=#333333;strokeColor=#666666;" vertex="1" parent="IV75y_4CTsu8xXDFk1eG-35">
          <mxGeometry x="22.5" y="195" width="40" height="40" as="geometry" />
        </mxCell>
        <mxCell id="IV75y_4CTsu8xXDFk1eG-37" style="edgeStyle=orthogonalEdgeStyle;rounded=0;orthogonalLoop=1;jettySize=auto;html=1;exitX=0;exitY=0.5;exitDx=0;exitDy=0;entryX=1;entryY=0.5;entryDx=0;entryDy=0;" edge="1" parent="IV75y_4CTsu8xXDFk1eG-35" source="IV75y_4CTsu8xXDFk1eG-38" target="IV75y_4CTsu8xXDFk1eG-36">
          <mxGeometry relative="1" as="geometry" />
        </mxCell>
        <mxCell id="IV75y_4CTsu8xXDFk1eG-38" value="&lt;font style=&quot;font-size: 15px;&quot;&gt;v2&lt;/font&gt;" style="whiteSpace=wrap;html=1;aspect=fixed;fillColor=#f5f5f5;fontColor=#333333;strokeColor=#666666;" vertex="1" parent="IV75y_4CTsu8xXDFk1eG-35">
          <mxGeometry x="122.5" y="195" width="40" height="40" as="geometry" />
        </mxCell>
        <mxCell id="IV75y_4CTsu8xXDFk1eG-39" style="edgeStyle=orthogonalEdgeStyle;rounded=0;orthogonalLoop=1;jettySize=auto;html=1;exitX=0.5;exitY=0;exitDx=0;exitDy=0;entryX=0.5;entryY=1;entryDx=0;entryDy=0;" edge="1" parent="IV75y_4CTsu8xXDFk1eG-35" source="IV75y_4CTsu8xXDFk1eG-40">
          <mxGeometry relative="1" as="geometry">
            <mxPoint x="142.5" y="235" as="targetPoint" />
          </mxGeometry>
        </mxCell>
        <mxCell id="IV75y_4CTsu8xXDFk1eG-40" value="&lt;font style=&quot;font-size: 15px;&quot;&gt;main&lt;/font&gt;" style="rounded=1;whiteSpace=wrap;html=1;fillColor=#ffe6cc;strokeColor=#d79b00;" vertex="1" parent="IV75y_4CTsu8xXDFk1eG-35">
          <mxGeometry x="97.5" y="265" width="90" height="30" as="geometry" />
        </mxCell>
        <mxCell id="IV75y_4CTsu8xXDFk1eG-41" style="edgeStyle=orthogonalEdgeStyle;rounded=0;orthogonalLoop=1;jettySize=auto;html=1;exitX=0.5;exitY=1;exitDx=0;exitDy=0;entryX=0.5;entryY=0;entryDx=0;entryDy=0;" edge="1" parent="IV75y_4CTsu8xXDFk1eG-35" source="IV75y_4CTsu8xXDFk1eG-42" target="IV75y_4CTsu8xXDFk1eG-44">
          <mxGeometry relative="1" as="geometry" />
        </mxCell>
        <mxCell id="IV75y_4CTsu8xXDFk1eG-42" value="&lt;font style=&quot;font-size: 15px;&quot;&gt;dev&lt;/font&gt;" style="rounded=1;whiteSpace=wrap;html=1;fillColor=#fff2cc;strokeColor=#d6b656;" vertex="1" parent="IV75y_4CTsu8xXDFk1eG-35">
          <mxGeometry x="157.5" y="85" width="90" height="30" as="geometry" />
        </mxCell>
        <mxCell id="IV75y_4CTsu8xXDFk1eG-43" style="edgeStyle=orthogonalEdgeStyle;rounded=0;orthogonalLoop=1;jettySize=auto;html=1;exitX=0;exitY=0.5;exitDx=0;exitDy=0;entryX=0.5;entryY=0;entryDx=0;entryDy=0;" edge="1" parent="IV75y_4CTsu8xXDFk1eG-35" source="IV75y_4CTsu8xXDFk1eG-44" target="IV75y_4CTsu8xXDFk1eG-36">
          <mxGeometry relative="1" as="geometry" />
        </mxCell>
        <mxCell id="IV75y_4CTsu8xXDFk1eG-44" value="&lt;font style=&quot;font-size: 15px;&quot;&gt;v3&lt;/font&gt;" style="whiteSpace=wrap;html=1;aspect=fixed;fillColor=#f5f5f5;fontColor=#333333;strokeColor=#666666;" vertex="1" parent="IV75y_4CTsu8xXDFk1eG-35">
          <mxGeometry x="182.5" y="145" width="40" height="40" as="geometry" />
        </mxCell>
      </root>
    </mxGraphModel>
  </diagram>
</mxfile>
